<?xml version="1.0" encoding="UTF-8" standalone="no" ?>
<!DOCTYPE svg PUBLIC "-//W3C//DTD SVG 1.1//EN" "http://www.w3.org/Graphics/SVG/1.1/DTD/svg11.dtd">
<svg xmlns="http://www.w3.org/2000/svg" xmlns:xlink="http://www.w3.org/1999/xlink" version="1.1" width="24" height="24" viewBox="0 0 24 24" xml:space="preserve">
<desc>Created with Fabric.js 5.3.0</desc>
<defs>
</defs>
<g transform="matrix(1.2935172821 0 0 1.2935172821 12.0152627662 11.9847372338)" id="D3jbeuZ3MnZo_pcXSQXt8"  >
<path style="stroke: none; stroke-width: 1; stroke-dasharray: none; stroke-linecap: butt; stroke-dashoffset: 0; stroke-linejoin: miter; stroke-miterlimit: 4; fill: rgb(255,255,255); fill-rule: nonzero; opacity: 1;"  transform=" translate(-11.75, -11.75)" d="M 9.5 3 C 13.089850873900158 3 16 5.9101491260998404 16 9.499999999999998 C 16 11.11 15.41 12.59 14.44 13.73 L 14.71 14 L 15.5 14 L 20.5 19 L 19 20.5 L 14 15.5 L 14 14.71 L 13.73 14.44 C 12.59 15.41 11.11 16 9.5 16 C 5.910149126099842 16 3 13.089850873900158 3 9.5 C 3 5.910149126099842 5.910149126099842 3 9.5 3 M 9.5 5 C 7 5 5 7 5 9.5 C 5 12 7 14 9.5 14 C 12 14 14 12 14 9.5 C 14 7 12 5 9.5 5 Z" stroke-linecap="round" />
</g>
</svg>